<?xml version="1.0" encoding="UTF-8"?>
<svg xmlns="http://www.w3.org/2000/svg" width="100" height="100" viewBox="0 0 100 100">
  <!-- მთავარი pad - გულის ფორმა -->
  <path d="M50,82 C28,82 20,68 20,57 C20,46 29,40 38,43 C43,45 47,49 50,53 C53,49 57,45 62,43 C71,40 80,46 80,57 C80,68 72,82 50,82Z"
        fill="param(fill) #CC0000" stroke="param(outline) #800000" stroke-width="2.5"/>
  <!-- 4 თითის pad -->
  <ellipse cx="26" cy="35" rx="9" ry="10" fill="param(fill) #CC0000" stroke="param(outline) #800000" stroke-width="2"/>
  <ellipse cx="42" cy="25" rx="9" ry="10" fill="param(fill) #CC0000" stroke="param(outline) #800000" stroke-width="2"/>
  <ellipse cx="58" cy="25" rx="9" ry="10" fill="param(fill) #CC0000" stroke="param(outline) #800000" stroke-width="2"/>
  <ellipse cx="74" cy="35" rx="9" ry="10" fill="param(fill) #CC0000" stroke="param(outline) #800000" stroke-width="2"/>
  <!-- ფრჩხილები -->
  <path d="M22,24 Q19,16 21,11" fill="none" stroke="param(outline) #800000" stroke-width="2.2" stroke-linecap="round"/>
  <path d="M38,14 Q37,6 39,2"   fill="none" stroke="param(outline) #800000" stroke-width="2.2" stroke-linecap="round"/>
  <path d="M62,14 Q63,6 61,2"   fill="none" stroke="param(outline) #800000" stroke-width="2.2" stroke-linecap="round"/>
  <path d="M78,24 Q81,16 79,11" fill="none" stroke="param(outline) #800000" stroke-width="2.2" stroke-linecap="round"/>
</svg>