<?xml version="1.0" encoding="UTF-8"?>
<svg xmlns="http://www.w3.org/2000/svg" width="100" height="100" viewBox="0 0 100 100">
  <!-- ჩექმის სხეული -->
  <path d="
    M35,5
    C35,5 37,5 39,5
    L41,52
    C41,52 44,56 52,60
    C60,64 72,65 76,68
    C80,71 80,76 78,80
    C76,84 70,87 62,87
    L22,87
    C18,87 16,84 16,81
    L16,76
    C16,72 19,70 22,70
    L30,70
    C30,70 29,64 29,58
    L27,10
    C27,7 30,5 35,5Z"
    fill="#6C3483" stroke="#6C3483CC" stroke-width="2.5" stroke-linejoin="round"/>
  <!-- ქუსლი -->
  <rect x="14" y="82" width="14" height="12" rx="2"
        fill="#6C3483" stroke="#6C3483CC" stroke-width="2"/>
  <!-- ბლიკი/დეტალი -->
  <path d="M30,15 C32,15 34,17 34,17 L35,45" 
        fill="none" stroke="#6C3483CC" stroke-width="1.2" stroke-linecap="round" opacity="0.5"/>
</svg>