<?xml version="1.0" encoding="UTF-8"?>
<svg xmlns="http://www.w3.org/2000/svg" width="100" height="100" viewBox="0 0 100 100">
  <!-- ღერო -->
  <path d="M50,95 C50,95 48,78 50,68" stroke="#2D6A4F" stroke-width="3" fill="none" stroke-linecap="round"/>
  <!-- ფოთოლი -->
  <path d="M50,80 C44,74 36,73 34,67 C38,65 46,68 50,75" fill="#2D6A4F" opacity="0.85"/>
  <!-- გარე ფურცლები -->
  <path d="M50,62 C40,58 33,48 36,38 C42,34 52,40 50,62Z" fill="#2C3E50" stroke="#2C3E50CC" stroke-width="1.5"/>
  <path d="M50,62 C60,58 67,48 64,38 C58,34 48,40 50,62Z" fill="#2C3E50" stroke="#2C3E50CC" stroke-width="1.5"/>
  <path d="M50,62 C38,62 28,55 28,44 C32,38 44,42 50,62Z" fill="#2C3E50" stroke="#2C3E50CC" stroke-width="1.5"/>
  <path d="M50,62 C62,62 72,55 72,44 C68,38 56,42 50,62Z" fill="#2C3E50" stroke="#2C3E50CC" stroke-width="1.5"/>
  <!-- შიდა ფურცლები -->
  <path d="M50,58 C44,52 44,44 48,40 C52,38 56,44 50,58Z" fill="#2C3E50" stroke="#2C3E50CC" stroke-width="1"/>
  <path d="M50,58 C56,52 56,44 52,40 C48,38 44,44 50,58Z" fill="#2C3E50" stroke="#2C3E50CC" stroke-width="1"/>
  <!-- ცენტრი -->
  <ellipse cx="50" cy="46" rx="5" ry="6" fill="#2C3E50" stroke="#2C3E50CC" stroke-width="1.5"/>
</svg>